<svg width="148" height="148" viewBox="0 0 148 148" fill="none" xmlns="http://www.w3.org/2000/svg">
<circle cx="74" cy="74" r="74" fill="#010326"/>
<path fill-rule="evenodd" clip-rule="evenodd" d="M40.8003 50.1179C38.8327 50.445 37.0719 51.648 35.9679 53.4192C35.3828 54.358 34.9307 55.8208 34.9285 56.7825L34.9279 57.0545H73.8885H112.849V53.5393V50.024L77.0481 50.0338C56.657 50.0394 41.0547 50.0756 40.8003 50.1179ZM36.2328 68.5689C35.728 68.7539 35.3842 69.0607 35.1457 69.5394L34.9279 69.9767V81.0954C34.9279 93.3756 34.9061 92.8414 35.4594 94.1325C36.274 96.0332 37.8074 97.3616 39.8659 97.9499C40.3852 98.0982 41.0815 98.1065 55.1405 98.1316C65.9035 98.1507 69.9612 98.1323 70.2059 98.0633C70.7233 97.9172 71.1366 97.6058 71.3939 97.1679L71.6287 96.7685L71.6537 93.9437L71.6788 91.119H56.8604H42.042V83.2934V75.4677L56.124 75.4659C69.623 75.4642 70.2199 75.4577 70.5453 75.3099C70.9632 75.1201 71.4437 74.5736 71.5734 74.1405C71.6384 73.9236 71.6706 72.9258 71.6706 71.1268V68.4373L54.1152 68.4431C39.0977 68.4482 36.5126 68.4664 36.2328 68.5689ZM76.0425 82.3098L76.0646 96.1826L76.2934 96.6486C76.5728 97.2175 77.0152 97.6748 77.5712 97.9695L77.9896 98.1913L80.4796 98.2168L82.9696 98.2424V86.8557V75.4692L97.2216 75.4476L111.474 75.4259L111.886 75.1295C112.15 74.94 112.375 74.6844 112.511 74.4206L112.724 74.008V71.2436V68.4791L94.372 68.458L76.0203 68.4369L76.0425 82.3098Z" fill="white"/>
</svg>
