<svg width="264" height="163" viewBox="0 0 264 163" fill="none" xmlns="http://www.w3.org/2000/svg">
<path fill-rule="evenodd" clip-rule="evenodd" d="M19.8398 0.316972C13.1925 1.42227 7.2438 5.48635 3.51423 11.4701C1.53746 14.6418 0.0100047 19.5835 0.00265299 22.8327L0.000390927 23.7517H131.624H263.248V11.8758V0L142.298 0.0330827C73.4098 0.0517447 20.6991 0.174179 19.8398 0.316972ZM4.40887 62.6516C2.70356 63.2764 1.54227 64.313 0.73641 65.9301L0.000390927 67.4075V104.971C0.000390927 146.458 -0.0731263 144.653 1.79619 149.015C4.54827 155.436 9.72868 159.924 16.6831 161.911C18.4373 162.413 20.7899 162.441 68.2865 162.525C104.648 162.59 118.356 162.528 119.183 162.295C120.931 161.801 122.327 160.749 123.197 159.27L123.99 157.92L124.074 148.377L124.159 138.834H74.0969H24.0348V112.396V85.9585L71.6089 85.9522C117.214 85.9463 119.23 85.9245 120.33 85.4252C121.742 84.7839 123.365 82.9377 123.803 81.4745C124.023 80.7416 124.131 77.3708 124.131 71.2929V62.2068L64.8227 62.2266C14.0877 62.2438 5.35441 62.3052 4.40887 62.6516ZM138.901 109.073L138.976 155.941L139.749 157.515C140.693 159.437 142.188 160.982 144.066 161.978L145.479 162.727L153.891 162.814L162.304 162.9V124.431V85.9633L210.452 85.8903L258.601 85.8171L259.995 84.8158C260.886 84.1757 261.647 83.3121 262.106 82.4209L262.824 81.0269V71.6877V62.3482L200.825 62.2769L138.826 62.2056L138.901 109.073Z" fill="black"/>
</svg>
